HIERARCHY
ROOT Hips
{
	OFFSET 0.000000 87.230942 0.000000
	CHANNELS 6 Xposition Yposition Zposition Xrotation Yrotation Zrotation
	JOINT Pelvis
	{
		OFFSET 0.000000 0.000000 0.000000
		CHANNELS 3 Xrotation Yrotation Zrotation
		JOINT LeftUpLeg
		{
			OFFSET 12.017000 -9.376404 -2.439400
			CHANNELS 3 Xrotation Yrotation Zrotation
			JOINT LeftLeg
			{
				OFFSET -0.007312 -32.846973 2.110600
				CHANNELS 3 Xrotation Yrotation Zrotation
				JOINT LeftFoot
				{
					OFFSET 0.007312 -32.065170 -0.570400
					CHANNELS 3 Xrotation Yrotation Zrotation
					JOINT LeftToeBase
					{
						OFFSET 0.728300 -11.045900 13.180700
						CHANNELS 3 Xrotation Yrotation Zrotation
						End Site
						{
							OFFSET 0.000000 17.212589 0.000000
						}
					}
				}
				JOINT LeftPantLeg
				{
					OFFSET 0.002788 -16.709013 -3.143600
					CHANNELS 3 Xrotation Yrotation Zrotation
					End Site
					{
						OFFSET -0.605125 24.528742 0.000000
					}
				}
			}
			JOINT Left_Butt
			{
				OFFSET -6.630234 1.326584 -3.183700
				CHANNELS 3 Xrotation Yrotation Zrotation
				End Site
				{
					OFFSET -0.498041 20.188049 0.000000
				}
			}
		}
		JOINT RightUpLeg
		{
			OFFSET -11.717000 -9.376404 -2.439400
			CHANNELS 3 Xrotation Yrotation Zrotation
			JOINT RightLeg
			{
				OFFSET -0.003241 -32.846912 2.110600
				CHANNELS 3 Xrotation Yrotation Zrotation
				JOINT RightFoot
				{
					OFFSET 0.003241 -32.065136 -0.570500
					CHANNELS 3 Xrotation Yrotation Zrotation
					JOINT RightToeBase
					{
						OFFSET -0.728300 -11.045901 13.180700
						CHANNELS 3 Xrotation Yrotation Zrotation
						End Site
						{
							OFFSET 0.000000 17.212593 0.000000
						}
					}
				}
				JOINT RightPantLeg
				{
					OFFSET 0.008142 -16.708982 -3.143700
					CHANNELS 3 Xrotation Yrotation Zrotation
					End Site
					{
						OFFSET 0.605088 24.528715 0.000000
					}
				}
			}
			JOINT Right_Butt
			{
				OFFSET 6.630732 1.326584 -3.183700
				CHANNELS 3 Xrotation Yrotation Zrotation
				End Site
				{
					OFFSET 0.498015 20.188240 0.000000
				}
			}
		}
	}
	JOINT Spine
	{
		OFFSET -0.062400 7.848404 3.918300
		CHANNELS 3 Xrotation Yrotation Zrotation
		JOINT Spine1
		{
			OFFSET -0.072800 11.422302 0.713400
			CHANNELS 3 Xrotation Yrotation Zrotation
			JOINT Spine2
			{
				OFFSET -0.083200 13.054001 -1.931600
				CHANNELS 3 Xrotation Yrotation Zrotation
				JOINT Neck
				{
					OFFSET -0.092200 14.121796 -5.138800
					CHANNELS 3 Xrotation Yrotation Zrotation
					JOINT Head
					{
						OFFSET 0.000200 10.447403 -0.842000
						CHANNELS 3 Xrotation Yrotation Zrotation
						JOINT Visor
						{
							OFFSET 0.457100 25.671204 16.550400
							CHANNELS 3 Xrotation Yrotation Zrotation
							End Site
							{
								OFFSET 0.000000 26.061493 0.000000
							}
						}
						JOINT HairMidA
						{
							OFFSET 0.459400 31.585403 8.437400
							CHANNELS 3 Xrotation Yrotation Zrotation
							End Site
							{
								OFFSET 0.000000 26.061493 0.000000
							}
						}
						JOINT HairMidB
						{
							OFFSET 0.464000 33.309204 -8.389700
							CHANNELS 3 Xrotation Yrotation Zrotation
							End Site
							{
								OFFSET 0.000000 26.061493 0.000000
							}
						}
						JOINT HairMidC
						{
							OFFSET 0.466600 27.991196 -17.375099
							CHANNELS 3 Xrotation Yrotation Zrotation
							End Site
							{
								OFFSET 0.000000 26.061493 0.000000
							}
						}
						JOINT HairMidD
						{
							OFFSET 0.467700 17.888092 -21.169500
							CHANNELS 3 Xrotation Yrotation Zrotation
							End Site
							{
								OFFSET 0.000000 26.061493 0.000000
							}
						}
						JOINT HairMidE
						{
							OFFSET 5.325700 3.514603 -14.369699
							CHANNELS 3 Xrotation Yrotation Zrotation
							End Site
							{
								OFFSET 0.000000 26.061493 0.000000
							}
						}
						JOINT HairMidF
						{
							OFFSET -4.394100 3.514603 -14.372400
							CHANNELS 3 Xrotation Yrotation Zrotation
							End Site
							{
								OFFSET 0.000000 26.061493 0.000000
							}
						}
						JOINT HairLeftA
						{
							OFFSET 15.319900 25.746506 2.623300
							CHANNELS 3 Xrotation Yrotation Zrotation
							End Site
							{
								OFFSET 0.000000 26.061493 0.000000
							}
						}
						JOINT HairLeftB
						{
							OFFSET 12.619500 29.289398 -8.731499
							CHANNELS 3 Xrotation Yrotation Zrotation
							End Site
							{
								OFFSET 0.000000 26.061493 0.000000
							}
						}
						JOINT HairLeftC
						{
							OFFSET 15.714800 15.959900 2.909800
							CHANNELS 3 Xrotation Yrotation Zrotation
							End Site
							{
								OFFSET 0.000000 26.061493 0.000000
							}
						}
						JOINT HairLeftD
						{
							OFFSET 16.101700 18.437408 -7.553200
							CHANNELS 3 Xrotation Yrotation Zrotation
							End Site
							{
								OFFSET 0.000000 26.061493 0.000000
							}
						}
						JOINT HairLeftE
						{
							OFFSET 9.731900 17.915009 -18.316799
							CHANNELS 3 Xrotation Yrotation Zrotation
							End Site
							{
								OFFSET 0.000000 26.061493 0.000000
							}
						}
						JOINT HairLeftF
						{
							OFFSET 11.204300 4.953598 -9.668100
							CHANNELS 3 Xrotation Yrotation Zrotation
							End Site
							{
								OFFSET 0.000000 26.061493 0.000000
							}
						}
						JOINT HairRightA
						{
							OFFSET -14.397900 25.746307 2.615100
							CHANNELS 3 Xrotation Yrotation Zrotation
							End Site
							{
								OFFSET 0.000000 26.061493 0.000000
							}
						}
						JOINT HairRightB
						{
							OFFSET -11.691200 29.289200 -8.738199
							CHANNELS 3 Xrotation Yrotation Zrotation
							End Site
							{
								OFFSET 0.000000 26.061493 0.000000
							}
						}
						JOINT HairRightC
						{
							OFFSET -14.792900 15.959702 2.901400
							CHANNELS 3 Xrotation Yrotation Zrotation
							End Site
							{
								OFFSET 0.000000 26.061493 0.000000
							}
						}
						JOINT HairRightD
						{
							OFFSET -15.174000 18.437195 -7.561900
							CHANNELS 3 Xrotation Yrotation Zrotation
							End Site
							{
								OFFSET 0.000000 26.061493 0.000000
							}
						}
						JOINT HairRightE
						{
							OFFSET -8.798200 17.914902 -18.322001
							CHANNELS 3 Xrotation Yrotation Zrotation
							End Site
							{
								OFFSET 0.000000 26.061493 0.000000
							}
						}
						JOINT HairRightF
						{
							OFFSET -10.275200 4.953506 -9.674099
							CHANNELS 3 Xrotation Yrotation Zrotation
							End Site
							{
								OFFSET 0.000000 26.061493 0.000000
							}
						}
					}
				}
				JOINT LeftShoulder
				{
					OFFSET 5.133500 7.341202 -1.867600
					CHANNELS 3 Xrotation Yrotation Zrotation
					JOINT LeftArm
					{
						OFFSET 8.072663 0.936867 -2.176600
						CHANNELS 3 Xrotation Yrotation Zrotation
						JOINT LeftForeArm
						{
							OFFSET 31.271999 0.000000 0.000000
							CHANNELS 3 Xrotation Yrotation Zrotation
							JOINT LeftHand
							{
								OFFSET 31.771030 0.000000 0.000000
								CHANNELS 3 Xrotation Yrotation Zrotation
								JOINT LeftHandThumb1
								{
									OFFSET 2.886520 -2.557846 4.416640
									CHANNELS 3 Xrotation Yrotation Zrotation
									JOINT LeftHandThumb2
									{
										OFFSET 2.371025 -1.368912 1.368911
										CHANNELS 3 Xrotation Yrotation Zrotation
										JOINT LeftHandThumb3
										{
											OFFSET 2.243378 -1.295212 1.295213
											CHANNELS 3 Xrotation Yrotation Zrotation
											End Site
											{
												OFFSET -0.332611 2.876945 0.020015
											}
										}
									}
								}
								JOINT LeftHandIndex1
								{
									OFFSET 8.568985 -0.641945 3.119977
									CHANNELS 3 Xrotation Yrotation Zrotation
									JOINT LeftHandIndex2
									{
										OFFSET 3.348503 0.000000 0.000000
										CHANNELS 3 Xrotation Yrotation Zrotation
										JOINT LeftHandIndex3
										{
											OFFSET 3.314552 0.000000 0.000000
											CHANNELS 3 Xrotation Yrotation Zrotation
											End Site
											{
												OFFSET -1.032898 3.075485 0.678796
											}
										}
									}
								}
								JOINT LeftHandMiddle1
								{
									OFFSET 8.124603 0.000000 0.000000
									CHANNELS 3 Xrotation Yrotation Zrotation
									JOINT LeftHandMiddle2
									{
										OFFSET 4.166275 0.000000 0.000000
										CHANNELS 3 Xrotation Yrotation Zrotation
										JOINT LeftHandMiddle3
										{
											OFFSET 3.018135 0.000000 0.000000
											CHANNELS 3 Xrotation Yrotation Zrotation
											End Site
											{
												OFFSET -1.032700 2.767982 0.617226
											}
										}
									}
								}
								JOINT LeftHandRing1
								{
									OFFSET 8.571686 -0.031357 -2.884048
									CHANNELS 3 Xrotation Yrotation Zrotation
									JOINT LeftHandRing2
									{
										OFFSET 3.671181 0.000000 0.000000
										CHANNELS 3 Xrotation Yrotation Zrotation
										JOINT LeftHandRing3
										{
											OFFSET 2.728851 0.000000 0.000000
											CHANNELS 3 Xrotation Yrotation Zrotation
											End Site
											{
												OFFSET -0.815796 2.539223 0.577389
											}
										}
									}
								}
								JOINT LeftHandPinky1
								{
									OFFSET 7.854515 -0.675232 -5.213020
									CHANNELS 3 Xrotation Yrotation Zrotation
									JOINT LeftHandPinky2
									{
										OFFSET 3.068596 0.000000 0.000000
										CHANNELS 3 Xrotation Yrotation Zrotation
										JOINT LeftHandPinky3
										{
											OFFSET 2.396042 0.000000 0.000000
											CHANNELS 3 Xrotation Yrotation Zrotation
											End Site
											{
												OFFSET -0.524597 2.267998 0.567429
											}
										}
									}
								}
							}
							JOINT LeftSleeve
							{
								OFFSET 19.684509 -0.200119 0.476146
								CHANNELS 3 Xrotation Yrotation Zrotation
								End Site
								{
									OFFSET -0.031017 25.731133 -0.002868
								}
							}
						}
					}
				}
				JOINT RightShoulder
				{
					OFFSET -4.395900 7.341202 -1.870200
					CHANNELS 3 Xrotation Yrotation Zrotation
					JOINT RightArm
					{
						OFFSET -8.071453 0.936867 -2.181100
						CHANNELS 3 Xrotation Yrotation Zrotation
						JOINT RightForeArm
						{
							OFFSET -31.272011 0.000000 0.000000
							CHANNELS 3 Xrotation Yrotation Zrotation
							JOINT RightHand
							{
								OFFSET -31.771019 0.000000 0.000000
								CHANNELS 3 Xrotation Yrotation Zrotation
								JOINT RightHandThumb1
								{
									OFFSET -2.886520 -2.557808 4.416626
									CHANNELS 3 Xrotation Yrotation Zrotation
									JOINT RightHandThumb2
									{
										OFFSET -2.371056 -1.368927 1.368928
										CHANNELS 3 Xrotation Yrotation Zrotation
										JOINT RightHandThumb3
										{
											OFFSET -2.243362 -1.295204 1.295206
											CHANNELS 3 Xrotation Yrotation Zrotation
											End Site
											{
												OFFSET 0.332642 2.876938 0.020047
											}
										}
									}
								}
								JOINT RightHandIndex1
								{
									OFFSET -8.568993 -0.641953 3.120017
									CHANNELS 3 Xrotation Yrotation Zrotation
									JOINT RightHandIndex2
									{
										OFFSET -3.348518 0.000000 0.000000
										CHANNELS 3 Xrotation Yrotation Zrotation
										JOINT RightHandIndex3
										{
											OFFSET -3.314552 0.000000 0.000000
											CHANNELS 3 Xrotation Yrotation Zrotation
											End Site
											{
												OFFSET 1.032898 3.075478 0.678804
											}
										}
									}
								}
								JOINT RightHandMiddle1
								{
									OFFSET -8.124588 0.000000 0.000000
									CHANNELS 3 Xrotation Yrotation Zrotation
									JOINT RightHandMiddle2
									{
										OFFSET -4.166275 0.000000 0.000000
										CHANNELS 3 Xrotation Yrotation Zrotation
										JOINT RightHandMiddle3
										{
											OFFSET -3.018097 0.000000 0.000000
											CHANNELS 3 Xrotation Yrotation Zrotation
											End Site
											{
												OFFSET 1.032700 2.767937 0.617197
											}
										}
									}
								}
								JOINT RightHandRing1
								{
									OFFSET -8.571747 -0.031349 -2.884061
									CHANNELS 3 Xrotation Yrotation Zrotation
									JOINT RightHandRing2
									{
										OFFSET -3.671204 0.000000 0.000000
										CHANNELS 3 Xrotation Yrotation Zrotation
										JOINT RightHandRing3
										{
											OFFSET -2.728874 0.000000 0.000000
											CHANNELS 3 Xrotation Yrotation Zrotation
											End Site
											{
												OFFSET 0.815804 2.539261 0.577413
											}
										}
									}
								}
								JOINT RightHandPinky1
								{
									OFFSET -7.854561 -0.675247 -5.212970
									CHANNELS 3 Xrotation Yrotation Zrotation
									JOINT RightHandPinky2
									{
										OFFSET -3.068550 0.000000 0.000000
										CHANNELS 3 Xrotation Yrotation Zrotation
										JOINT RightHandPinky3
										{
											OFFSET -2.395981 0.000000 0.000000
											CHANNELS 3 Xrotation Yrotation Zrotation
											End Site
											{
												OFFSET 0.524605 2.267952 0.567413
											}
										}
									}
								}
							}
							JOINT RightSleeve
							{
								OFFSET -19.684753 -0.200165 0.476065
								CHANNELS 3 Xrotation Yrotation Zrotation
								End Site
								{
									OFFSET 0.031342 25.731255 -0.002917
								}
							}
						}
					}
				}
				JOINT Hood
				{
					OFFSET 0.369700 14.447800 -5.317800
					CHANNELS 3 Xrotation Yrotation Zrotation
					JOINT Hood1
					{
						OFFSET 0.001700 -5.553802 -5.895100
						CHANNELS 3 Xrotation Yrotation Zrotation
						JOINT Hood2
						{
							OFFSET -0.000200 -8.380501 0.763600
							CHANNELS 3 Xrotation Yrotation Zrotation
							End Site
							{
								OFFSET 0.000000 8.415215 0.000000
							}
						}
					}
				}
				JOINT Left_Breast
				{
					OFFSET 5.682500 3.120102 3.188800
					CHANNELS 3 Xrotation Yrotation Zrotation
					End Site
					{
						OFFSET 0.000000 10.528564 0.000000
					}
				}
				JOINT Right_Breast
				{
					OFFSET -4.947600 3.120102 3.185900
					CHANNELS 3 Xrotation Yrotation Zrotation
					End Site
					{
						OFFSET 0.000000 10.528564 0.000000
					}
				}
				JOINT Whistle
				{
					OFFSET 0.368200 11.471298 0.095400
					CHANNELS 3 Xrotation Yrotation Zrotation
					JOINT Whistle1
					{
						OFFSET -0.002000 -6.349899 7.479800
						CHANNELS 3 Xrotation Yrotation Zrotation
						JOINT Whistle2
						{
							OFFSET -0.001300 -8.217598 4.717600
							CHANNELS 3 Xrotation Yrotation Zrotation
							End Site
							{
								OFFSET 0.000000 9.475479 0.000000
							}
						}
					}
				}
			}
		}
		JOINT Belly
		{
			OFFSET 0.212400 1.593002 3.163700
			CHANNELS 3 Xrotation Yrotation Zrotation
			End Site
			{
				OFFSET 0.000000 7.496635 0.000000
			}
		}
	}
	JOINT FitGrandmaFacialAnim_Joint
	{
		OFFSET 1.150000 -86.211197 -1.220100
		CHANNELS 3 Xrotation Yrotation Zrotation
		End Site
		{
			OFFSET 0.000000 31.666618 0.000000
		}
	}
}
MOTION
Frames: 4
Frame Time: 0.016667
-12.492289 84.790199 -4.865757 12.951225 -129.995739 18.587486 -0.000000 0.000002 0.000001 -102.275082 -20.934472 0.612199 87.901796 -13.935891 -33.230342 34.842110 -11.727600 -26.198198 -0.000000 -0.000001 0.000001 0.000001 -0.000001 -0.000001 0.000000 -0.000001 -0.000002 -10.094383 31.050019 -9.789434 24.143139 18.684939 -3.395989 -9.103292 9.499150 11.594039 -0.000000 0.000000 -0.000000 -0.000001 0.000001 0.000001 0.000001 0.000000 0.000001 17.512197 0.216424 -1.720631 8.584646 -0.768849 -1.067725 8.613863 -0.684836 -1.055480 6.128099 42.115233 2.848572 7.484608 47.433878 -29.136945 -0.000000 0.000000 -0.000000 -0.000000 0.000000 -0.000000 -0.000000 0.000000 -0.000000 -0.000000 0.000000 -0.000000 -0.000000 0.000000 -0.000000 -0.000000 0.000000 -0.000000 -0.000000 0.000000 -0.000000 -0.000000 0.000000 -0.000000 -0.000000 0.000000 -0.000000 -0.000000 0.000000 -0.000000 -0.000000 0.000000 -0.000000 -0.000000 0.000000 -0.000000 -0.000000 0.000000 -0.000000 -0.000000 0.000000 -0.000000 -0.000000 0.000000 -0.000000 -0.000000 0.000000 -0.000000 -0.000000 0.000000 -0.000000 -0.000000 0.000000 -0.000000 -0.000000 0.000000 -0.000000 -2.314303 -19.181514 9.645832 -51.327325 -47.749511 -40.680600 -278.688766 -149.109505 -272.924770 -39.791600 -8.511746 26.630692 -1.432212 -10.034937 7.701084 0.670877 15.323987 -3.924339 -0.000003 0.000002 -0.000000 13.261839 -0.987883 16.342228 -0.165940 0.299362 -25.445542 -0.000000 -0.000001 0.000002 8.548203 -0.380209 4.744684 0.222587 0.632693 -24.241704 -0.000003 0.000000 0.000001 6.164199 3.070789 -10.552880 0.029720 0.292439 -24.465417 0.000000 -0.000001 -0.000002 -5.502689 7.612664 -8.221730 0.203292 0.257460 -40.928280 -0.000004 0.000003 0.000003 0.000000 -0.000000 0.000002 -5.432975 22.644160 5.004588 -52.631689 7.939679 23.713486 118.664182 44.432679 -113.869273 -26.452915 -2.612715 -41.869483 0.242775 10.291376 -10.807272 1.082969 -16.586930 3.348090 -0.000000 0.000001 -0.000000 19.476558 11.202820 -14.310233 -0.119540 -0.321880 17.065480 0.000000 -0.000000 -0.000000 4.333496 2.440268 -5.783579 0.339400 -0.451951 25.920230 -0.000000 0.000000 -0.000002 -7.040584 -10.715430 4.750280 0.113493 -0.086663 25.185795 0.000000 -0.000002 -0.000001 -19.515394 -20.289284 5.002069 0.220594 -0.082044 35.874571 -0.000007 -0.000002 0.000001 -0.000001 -0.000000 0.000004 0.000001 0.000001 -0.000001 0.000001 0.000001 -0.000001 0.000001 0.000001 -0.000001 0.000001 0.000001 -0.000001 0.000001 0.000001 -0.000001 0.000001 0.000001 -0.000001 0.000001 -0.000001 0.000001 0.000001 -0.000001 0.000001 0.000000 0.000003 -0.000001 -0.000000 0.000002 0.000001 
-12.912878 84.866348 -4.898062 13.243397 -132.049932 18.948043 0.000000 0.000001 0.000001 -104.386628 -20.901325 1.367121 86.844612 -14.495062 -33.756554 34.687932 -12.152840 -27.795501 0.000001 -0.000000 -0.000001 -0.000000 -0.000001 -0.000002 -0.000004 0.000001 0.000002 -9.163095 32.422068 -10.015125 24.122034 19.186162 -3.396154 -9.380605 9.537528 11.628229 -0.000000 -0.000002 0.000000 -0.000001 0.000000 0.000001 0.000001 -0.000000 -0.000002 17.889894 0.317961 -1.857705 8.889993 -0.672195 -1.209731 8.918207 -0.587171 -1.199354 6.896469 42.518146 2.371670 7.475143 47.851025 -29.457516 0.000000 -0.000001 -0.000000 0.000000 -0.000001 -0.000000 0.000000 -0.000001 -0.000000 0.000000 -0.000001 -0.000000 0.000000 -0.000001 -0.000000 0.000000 -0.000001 -0.000000 0.000000 -0.000001 -0.000000 0.000000 -0.000001 -0.000000 0.000000 -0.000001 -0.000000 0.000000 -0.000001 -0.000000 0.000000 -0.000001 -0.000000 0.000000 -0.000001 -0.000000 0.000000 -0.000001 -0.000000 0.000000 -0.000001 -0.000000 0.000000 -0.000001 -0.000000 0.000000 -0.000001 -0.000000 0.000000 -0.000001 -0.000000 0.000000 -0.000001 -0.000000 0.000000 -0.000001 -0.000000 -2.111838 -18.783213 11.594752 -57.541366 -46.188717 -44.501981 -278.771794 -147.854334 -272.712433 -38.912418 -6.764430 26.414765 -1.404049 -9.882331 7.759687 0.819665 15.719849 -3.760167 -0.000001 -0.000001 -0.000000 13.267462 -0.989184 15.858526 -0.165525 0.299784 -25.929333 -0.000002 0.000000 -0.000001 8.542909 -0.376232 4.260961 0.223904 0.635161 -24.725456 0.000001 0.000001 -0.000001 6.159680 3.076375 -11.036449 0.030926 0.295219 -24.949185 -0.000001 0.000000 0.000002 -5.511958 7.619114 -8.705117 0.205030 0.259158 -41.412007 -0.000003 -0.000002 0.000005 -0.000002 0.000002 -0.000000 -4.710951 23.091025 2.504139 -57.009106 7.316078 23.385400 120.495288 44.831398 -115.618328 -25.258982 -3.285266 -43.084960 0.246955 10.259864 -10.819155 1.096941 -16.624499 3.332867 0.000000 0.000002 -0.000001 19.476648 11.202787 -14.266153 -0.119532 -0.321937 17.109800 -0.000002 0.000000 0.000001 4.332935 2.440180 -5.739231 0.339602 -0.451887 25.964489 -0.000001 -0.000000 -0.000003 -7.040678 -10.715779 4.794434 0.113493 -0.087194 25.230034 -0.000000 0.000000 -0.000002 -19.515292 -20.289422 5.046171 0.220730 -0.082219 35.918793 -0.000003 0.000002 -0.000002 -0.000000 -0.000001 0.000000 -0.000001 0.000001 -0.000000 -0.000001 0.000001 -0.000000 -0.000001 0.000001 -0.000000 -0.000001 0.000001 -0.000000 -0.000001 0.000001 -0.000000 -0.000001 0.000001 0.000000 -0.000003 0.000001 0.000001 -0.000003 0.000001 0.000001 0.000000 0.000001 -0.000000 0.000000 0.000001 0.000001 
-13.335091 84.943840 -4.948517 13.571479 -133.909875 19.364624 -0.000000 -0.000001 -0.000001 -106.285468 -20.860931 2.019666 85.793699 -15.316759 -34.207770 34.166939 -12.473221 -29.480688 0.000001 0.000001 0.000001 0.000000 -0.000001 -0.000000 0.000002 0.000001 -0.000001 -8.190123 33.689925 -10.304286 24.210164 19.620997 -3.425944 -9.733326 9.542606 11.639429 -0.000000 0.000001 0.000000 0.000001 0.000000 0.000001 0.000002 -0.000000 0.000000 18.244986 0.416498 -2.000131 9.182356 -0.573633 -1.355683 9.209425 -0.487403 -1.347772 7.658633 42.872548 1.900497 7.470989 48.226132 -29.784833 -0.000000 0.000001 -0.000000 -0.000000 0.000001 -0.000000 -0.000000 0.000001 -0.000000 -0.000000 0.000001 -0.000000 -0.000000 0.000001 -0.000000 -0.000000 0.000001 -0.000000 -0.000000 0.000001 -0.000000 -0.000000 0.000001 -0.000000 -0.000000 0.000001 -0.000000 -0.000000 0.000001 -0.000000 -0.000000 0.000001 -0.000000 -0.000000 0.000001 -0.000000 -0.000000 0.000001 -0.000000 -0.000000 0.000001 -0.000000 -0.000000 0.000001 -0.000000 -0.000000 0.000001 -0.000000 -0.000000 0.000001 -0.000000 -0.000000 0.000001 -0.000000 -0.000000 0.000001 -0.000000 -1.708631 -18.296963 14.299378 -63.045194 -44.076642 -47.688664 -278.832692 -146.576802 -272.650114 -36.274206 -4.437890 25.502302 -1.375953 -9.729484 7.818313 0.965344 16.109923 -3.599195 -0.000003 -0.000000 0.000000 13.273221 -0.990504 15.382354 -0.165107 0.300086 -26.405494 0.000003 -0.000003 -0.000000 8.537667 -0.372275 3.784803 0.225191 0.637533 -25.201708 0.000001 -0.000001 -0.000002 6.155176 3.082827 -11.512420 0.032045 0.297864 -25.425336 0.000005 -0.000003 0.000002 -5.521723 7.626064 -9.180898 0.206745 0.260805 -41.888201 -0.000001 0.000001 0.000001 -0.000001 -0.000001 0.000001 -3.961794 23.402296 0.011316 -60.996724 6.507642 22.843721 122.036151 45.207041 -117.083267 -24.195646 -3.692355 -44.353298 0.251443 10.226662 -10.831613 1.112195 -16.666073 3.315884 -0.000000 -0.000000 -0.000000 19.476744 11.202707 -14.217310 -0.119499 -0.321986 17.158805 -0.000002 -0.000001 0.000003 4.332360 2.440074 -5.690246 0.339850 -0.451868 26.013447 0.000000 0.000000 -0.000001 -7.040675 -10.716128 4.843304 0.113533 -0.087712 25.279027 0.000001 0.000000 -0.000003 -19.514971 -20.289497 5.094960 0.220873 -0.082414 35.967776 -0.000003 0.000001 -0.000001 0.000000 -0.000000 0.000004 0.000002 0.000001 0.000000 0.000002 0.000001 0.000000 0.000002 0.000001 0.000000 0.000002 0.000001 0.000000 0.000002 0.000001 0.000000 0.000002 0.000001 0.000000 -0.000000 0.000000 -0.000000 -0.000000 0.000000 -0.000000 0.000000 -0.000004 0.000000 -0.000000 -0.000001 -0.000001 
-13.864351 85.020294 -5.028032 13.904606 -135.559734 19.832050 -0.000000 -0.000003 -0.000000 -108.120160 -20.654929 2.390839 85.015836 -16.042922 -34.458745 33.977698 -12.826195 -31.189892 0.000000 -0.000001 0.000000 0.000001 0.000001 0.000001 -0.000000 -0.000000 -0.000003 -7.149451 34.847304 -10.704845 24.541261 19.992736 -3.498348 -10.307661 9.505330 11.595889 -0.000000 -0.000001 0.000000 0.000001 0.000000 0.000001 0.000001 -0.000001 -0.000002 18.573304 0.515419 -2.140545 9.456801 -0.479601 -1.500246 9.482777 -0.391718 -1.495375 8.404170 43.182454 1.436508 7.469502 48.560746 -30.109017 0.000001 0.000004 -0.000000 0.000001 0.000004 -0.000000 0.000001 0.000004 -0.000000 0.000001 0.000004 -0.000000 0.000001 0.000004 -0.000000 0.000001 0.000004 -0.000000 0.000001 0.000004 -0.000000 0.000001 0.000004 -0.000000 0.000001 0.000004 -0.000000 0.000001 0.000004 -0.000000 0.000001 0.000004 -0.000000 0.000001 0.000004 -0.000000 0.000001 0.000004 -0.000000 0.000001 0.000004 -0.000000 0.000001 0.000004 -0.000000 0.000001 0.000004 -0.000000 0.000001 0.000004 -0.000000 0.000001 0.000004 -0.000000 0.000001 0.000004 -0.000000 -1.353452 -17.783130 16.989126 -68.037727 -42.061825 -50.427338 -278.809251 -145.498179 -272.534902 -32.375281 -1.746998 24.022487 -1.348046 -9.576554 7.876804 1.107508 16.493367 -3.441775 0.000000 -0.000004 -0.000001 13.279101 -0.991791 14.914907 -0.164737 0.300419 -26.872889 0.000001 0.000001 0.000001 8.532594 -0.368283 3.317343 0.226382 0.639831 -25.669034 0.000001 -0.000003 -0.000002 6.150686 3.089460 -11.979653 0.033256 0.300465 -25.892755 0.000002 0.000002 0.000002 -5.531905 7.633401 -9.647849 0.208408 0.262434 -42.355594 -0.000004 0.000002 -0.000004 -0.000000 0.000001 0.000001 -3.221337 23.818381 -2.377800 -64.631007 5.220872 21.642984 123.514969 45.342020 -118.648446 -23.655928 -3.889361 -45.553192 0.256041 10.192102 -10.844658 1.128771 -16.711234 3.297551 -0.000000 0.000001 -0.000000 19.476679 11.202581 -14.164245 -0.119391 -0.322012 17.211851 -0.000001 0.000002 0.000002 4.331631 2.439932 -5.637018 0.340113 -0.451849 26.066666 -0.000001 0.000001 -0.000003 -7.040680 -10.716440 4.896201 0.113577 -0.088285 25.332168 -0.000000 -0.000002 0.000002 -19.514627 -20.289504 5.147704 0.221086 -0.082603 36.020929 -0.000001 -0.000000 -0.000000 -0.000001 -0.000001 0.000001 -0.000000 0.000000 -0.000000 -0.000000 0.000000 -0.000000 -0.000000 0.000000 -0.000000 -0.000000 0.000000 -0.000000 -0.000000 0.000000 -0.000000 -0.000000 0.000000 -0.000000 -0.000002 -0.000002 0.000001 -0.000002 -0.000002 0.000001 0.000000 0.000001 -0.000001 -0.000000 -0.000003 -0.000000 
